<?xml version="1.0" encoding="UTF-8" standalone="no"?>
<!-- Created with Inkscape (http://www.inkscape.org/) -->

<svg
   width="140.22659mm"
   height="147.62628mm"
   viewBox="0 0 140.22659 147.62628"
   version="1.1"
   id="svg1"
   xml:space="preserve"
   xmlns="http://www.w3.org/2000/svg"
   xmlns:svg="http://www.w3.org/2000/svg"><defs
     id="defs1" /><g
     id="layer1"
     transform="translate(-0.08435845,-0.19193674)"
     style="fill:#f3f3f1;fill-opacity:1"><path
       d="m 89.40741,0.72110174 v -0.529165 H 70.569136 L 45.275049,59.987582 15.32431,0.19193674 H 0.08435845 C 4.6351775,3.5785928 6.6460045,6.7535826 8.6568315,10.775237 v 46.884019 c 0,14.393288 -3.704155,15.557451 -8.04330805,16.086616 v 0.529165 H 18.816799 V 73.745872 C 14.477646,73.216707 10.773491,69.935884 10.773491,55.542596 V 15.008557 L 41.041729,75.4392 70.569136,5.6952526 V 68.242556 c 0,3.809988 -3.704155,4.974151 -8.043308,5.503316 v 0.529165 H 89.40741 V 73.745872 C 85.068257,73.216707 81.364102,72.052544 81.364102,68.242556 V 6.2244176 c 0,-3.8099878 3.704155,-4.9741509 8.043308,-5.50331586 z"
       id="text4"
       style="font-size:105.833px;font-family:'Roxborough CF';-inkscape-font-specification:'Roxborough CF, Normal';fill:#f3f3f1;stroke-width:0.264583;fill-opacity:1"
       aria-label="M" /><path
       d="M 140.31095,74.264295 V 73.73513 h -26.88158 v 0.529165 c 4.33915,0.529165 8.04331,1.693328 8.04331,5.503316 V 110.35334 H 81.361962 V 79.767611 c 0,-3.809988 3.70415,-4.974151 8.04331,-5.503316 V 73.73513 H 62.523687 v 0.529165 c 4.339155,0.529165 8.043305,1.693328 8.043305,5.503316 v 62.018129 c 0,3.80999 -3.70415,4.97415 -8.043305,5.50331 v 0.52917 h 26.881585 v -0.52917 c -4.33916,-0.52916 -8.04331,-1.69332 -8.04331,-5.50331 V 112.1525 h 40.110718 v 29.63324 c 0,3.80999 -3.70416,4.97415 -8.04331,5.50331 v 0.52917 h 26.88158 v -0.52917 c -4.33915,-0.52916 -8.04331,-1.69332 -8.04331,-5.50331 V 79.767611 c 0,-3.809988 3.70416,-4.974151 8.04331,-5.503316 z"
       id="text5"
       style="font-size:105.833px;font-family:'Roxborough CF';-inkscape-font-specification:'Roxborough CF, Normal';fill:#f3f3f1;stroke-width:0.264583;fill-opacity:1"
       aria-label="H" /></g></svg>
